<?xml version="1.0" encoding="UTF-8" standalone="no"?>
<svg
   xmlns:dc="http://purl.org/dc/elements/1.1/"
   xmlns:cc="http://creativecommons.org/ns#"
   xmlns:rdf="http://www.w3.org/1999/02/22-rdf-syntax-ns#"
   xmlns:svg="http://www.w3.org/2000/svg"
   xmlns="http://www.w3.org/2000/svg"
   xmlns:sodipodi="http://sodipodi.sourceforge.net/DTD/sodipodi-0.dtd"
   xmlns:inkscape="http://www.inkscape.org/namespaces/inkscape"
   width="128"
   height="59.733334"
   id="svg2"
   version="1.1"
   inkscape:version="0.92.4 (5da689c313, 2019-01-14)"
   sodipodi:docname="logo2.svg"
   inkscape:export-filename="/home/giovanni/progetti/subotto/website/images/logo.png"
   inkscape:export-xdpi="90"
   inkscape:export-ydpi="90">
  <metadata
     id="metadata36">
    <rdf:RDF>
      <cc:Work
         rdf:about="">
        <dc:format>image/svg+xml</dc:format>
        <dc:type
           rdf:resource="http://purl.org/dc/dcmitype/StillImage" />
        <dc:title></dc:title>
      </cc:Work>
    </rdf:RDF>
  </metadata>
  <defs
     id="defs34" />
  <sodipodi:namedview
     pagecolor="#ffffff"
     bordercolor="#666666"
     borderopacity="1"
     objecttolerance="10"
     gridtolerance="10"
     guidetolerance="10"
     inkscape:pageopacity="0"
     inkscape:pageshadow="2"
     inkscape:window-width="1918"
     inkscape:window-height="1055"
     id="namedview32"
     showgrid="false"
     inkscape:zoom="3.351706"
     inkscape:cx="73.563008"
     inkscape:cy="5.406885"
     inkscape:window-x="0"
     inkscape:window-y="23"
     inkscape:window-maximized="0"
     inkscape:current-layer="svg2" />
  <text
     xml:space="preserve"
     style="font-style:normal;font-variant:normal;font-weight:bold;font-stretch:normal;font-size:22.70571899px;line-height:125%;letter-spacing:0.27733332px;word-spacing:0px;fill:#3771c8;fill-opacity:1;stroke:none;stroke-width:1.06666672"
     x="68.261086"
     y="57.575184"
     id="text3013-3"><tspan
       sodipodi:role="line"
       x="68.261086"
       y="57.575184"
       style="font-style:normal;font-variant:normal;font-weight:bold;font-stretch:normal;-inkscape-font-specification:'&quot; Porky &quot; s Bold &quot;;-inkscape-font-specification:&quot; Porky';letter-spacing:0.80000001px;stroke-width:1.06666672"
       id="tspan3724">v10</tspan></text>
  <g
     style="fill:#3771c8"
     transform="matrix(1.0449831,0,0,1.0449831,-255.17074,-39.723531)"
     id="g8">
    <path
       d="m 244.18649,55.55106 c 0,1.368541 1.36747,3.147646 4.15308,3.147646 2.6843,0 4.00113,-1.813318 4.00113,-3.010792 0,-1.710676 1.77267,-2.531803 3.59597,-2.531803 1.77265,0 3.59596,0.752701 3.59596,2.052814 0,0.992192 -0.50648,2.052813 -1.51942,2.942365 l -12.3073,11.256259 c -0.70907,0.650057 -1.11424,1.368543 -1.11424,2.018599 0,1.74489 1.51941,2.634444 4.7102,2.634444 h 14.9916 c 2.58302,0 3.89985,-0.957981 3.89985,-2.70287 0,-1.710677 -1.21554,-2.634445 -3.84919,-2.634445 h -8.15422 c 3.39336,-3.079215 4.55825,-4.071415 7.85034,-7.013777 2.27912,-2.087024 3.69724,-4.584619 3.69724,-6.740071 0,-4.379329 -5.82443,-7.219059 -11.64888,-7.219059 -5.97638,0 -11.90212,2.976584 -11.90212,7.80069"
       id="path10"
       inkscape:connector-curvature="0"
       style="stroke-width:1.06666672" />
    <path
       d="m 280.15083,71.118226 c 0,1.950171 1.51941,2.942366 4.00114,2.942366 2.63365,0 4.05178,-0.992195 4.05178,-2.942366 v -2.839725 c 2.48172,0 3.7479,-0.889553 3.7479,-2.60023 0,-1.813316 -1.26618,-2.70287 -3.79855,-2.70287 V 52.163919 c 0,-2.360733 -2.27913,-3.763491 -5.16603,-3.763491 -2.27912,0 -4.05178,0.752699 -5.36861,2.189667 l -11.75018,12.795868 0.10133,-0.102635 c -0.75971,0.684271 -1.06359,1.43697 -1.06359,2.087027 0,1.573823 1.57005,2.942365 4.6089,2.942365 h 10.63594 v 2.805511 m 0,-13.651206 v 5.508382 h -4.71021 l 4.71021,-5.508382"
       id="path12"
       inkscape:connector-curvature="0"
       style="stroke-width:1.06666672" />
  </g>
  <g
     style="fill:#3771c8"
     transform="matrix(1.0950814,0,0,0.91317413,-243.11982,201.16397)"
     id="g24">
    <path
       d="m 283.03719,-202.60544 c -7.16578,0 -11.92941,6.92151 -11.92941,14.08731 0,5.65934 3.05362,10.62654 9.36439,10.62654 7.53221,0 11.92942,-6.67722 11.92942,-13.8023 0,-5.65934 -3.05361,-10.91155 -9.3644,-10.91155 m -0.61072,5.78149 c 2.56503,0 3.50148,3.25719 3.50148,5.98507 0,2.64645 -1.3436,7.24722 -4.88577,7.24722 -2.52431,0 -3.46076,-3.09431 -3.46076,-5.78148 0,-2.56504 1.34359,-7.45081 4.84505,-7.45081"
       id="path26"
       inkscape:connector-curvature="0"
       style="stroke-width:1.06666672" />
    <path
       d="m 295.69503,-198.61539 c -1.83216,17.42589 -1.83216,17.62948 -1.83216,17.83305 0,1.66931 0.97715,2.52431 2.85003,2.52431 2.15787,0 3.25718,-1.05858 3.46075,-3.13503 l 1.18073,-11.35941 c 0.20357,-1.79144 2.11716,-3.0536 3.66432,-3.0536 0.73286,0 1.46574,0.24429 2.40217,0.24429 1.87288,0 3.5829,-1.6286 3.5829,-3.5829 0,-1.54716 -1.14002,-3.0536 -4.1529,-3.0536 -1.71003,0 -4.51934,1.6693 -5.33363,3.01288 v -0.20357 c 0,-1.79145 -1.14002,-2.4836 -2.36146,-2.4836 -2.07645,0 -3.21646,1.05859 -3.46075,3.25718"
       id="path28"
       inkscape:connector-curvature="0"
       style="stroke-width:1.06666672" />
    <path
       d="m 321.52534,-202.68687 c -7.20649,0 -11.97013,7.28795 -11.97013,14.16874 0,5.94434 3.37933,10.70796 9.9344,10.70796 3.74575,0 6.9215,-1.38429 9.20153,-3.9086 0.61072,-0.57001 0.81429,-1.14002 0.89572,-1.87289 0,-1.30287 -0.32572,-2.68717 -2.03573,-2.68717 -2.15788,0 -3.70505,2.52431 -6.84008,2.52431 -1.6693,0 -4.92648,-1.14001 -4.92648,-4.39718 0,-0.16286 0.0407,-0.36643 0.0407,-0.52929 h 9.32368 c 3.13503,0 5.04862,-1e-5 5.37434,-3.13504 0.0814,-0.57001 0.0814,-1.14001 0.0814,-1.6693 0,-5.41505 -3.13504,-9.20154 -9.07938,-9.20154 m -4.92648,9.77154 c 0.285,-2.52431 2.4836,-3.8679 4.35648,-3.8679 1.6693,0 3.21646,1.05859 3.21646,3.2979 0,0.16286 0,0.36643 -0.0408,0.57 h -7.53222"
       id="path30"
       inkscape:connector-curvature="0"
       style="stroke-width:1.06666672" />
  </g>
  <text
     xml:space="preserve"
     style="font-style:normal;font-variant:normal;font-weight:bold;font-stretch:normal;font-size:22.70571899px;line-height:125%;font-family:'Porky\'s';-inkscape-font-specification:'Porky\'s Bold';letter-spacing:0.27733332px;word-spacing:0px;fill:#3771c8;fill-opacity:1;stroke:none;stroke-width:1.06666672"
     x="82.394691"
     y="102.5601"
     id="text3013"><tspan
       sodipodi:role="line"
       id="tspan3015"
       x="82.394691"
       y="102.5601"
       style="font-style:normal;font-variant:normal;font-weight:bold;font-stretch:normal;font-family:'Porky\'s';-inkscape-font-specification:'Porky\'s Bold';letter-spacing:0.80000001px;stroke-width:1.06666672">v10.<tspan
   style="font-style:normal;font-variant:normal;font-weight:bold;font-stretch:normal;font-family:'Porky\'s';-inkscape-font-specification:'Porky\'s Bold';letter-spacing:2.04799986px;stroke-width:1.06666672"
   id="tspan4146">0</tspan></tspan></text>
  <text
     xml:space="preserve"
     style="font-style:normal;font-weight:normal;font-size:40px;line-height:1.25;font-family:sans-serif;letter-spacing:0px;word-spacing:0px;fill:#000000;fill-opacity:1;stroke:none"
     x="98.100685"
     y="30.197643"
     id="text828"><tspan
       sodipodi:role="line"
       id="tspan826"
       x="98.100685"
       y="66.690857" /></text>
</svg>
