<?xml version="1.0" encoding="UTF-8" standalone="no"?>
<svg
   xmlns:dc="http://purl.org/dc/elements/1.1/"
   xmlns:cc="http://creativecommons.org/ns#"
   xmlns:rdf="http://www.w3.org/1999/02/22-rdf-syntax-ns#"
   xmlns:svg="http://www.w3.org/2000/svg"
   xmlns="http://www.w3.org/2000/svg"
   xmlns:sodipodi="http://sodipodi.sourceforge.net/DTD/sodipodi-0.dtd"
   xmlns:inkscape="http://www.inkscape.org/namespaces/inkscape"
   width="128"
   height="59.733334"
   id="svg2"
   version="1.1"
   inkscape:version="0.92.1 r15371"
   sodipodi:docname="logo.svg"
   inkscape:export-filename="/home/giovanni/progetti/subotto/website/images/logo.png"
   inkscape:export-xdpi="90"
   inkscape:export-ydpi="90">
  <metadata
     id="metadata36">
    <rdf:RDF>
      <cc:Work
         rdf:about="">
        <dc:format>image/svg+xml</dc:format>
        <dc:type
           rdf:resource="http://purl.org/dc/dcmitype/StillImage" />
        <dc:title />
      </cc:Work>
    </rdf:RDF>
  </metadata>
  <defs
     id="defs34" />
  <sodipodi:namedview
     pagecolor="#ffffff"
     bordercolor="#666666"
     borderopacity="1"
     objecttolerance="10"
     gridtolerance="10"
     guidetolerance="10"
     inkscape:pageopacity="0"
     inkscape:pageshadow="2"
     inkscape:window-width="1318"
     inkscape:window-height="748"
     id="namedview32"
     showgrid="false"
     inkscape:zoom="4.7400281"
     inkscape:cx="44.555748"
     inkscape:cy="8.7351674"
     inkscape:window-x="48"
     inkscape:window-y="0"
     inkscape:window-maximized="1"
     inkscape:current-layer="svg2" />
  <g
     style="fill:#3771c8"
     transform="matrix(1.0449831,0,0,1.0449831,-255.17074,-39.723531)"
     id="g8">
    <path
       d="m 244.18649,55.55106 c 0,1.368541 1.36747,3.147646 4.15308,3.147646 2.6843,0 4.00113,-1.813318 4.00113,-3.010792 0,-1.710676 1.77267,-2.531803 3.59597,-2.531803 1.77265,0 3.59596,0.752701 3.59596,2.052814 0,0.992192 -0.50648,2.052813 -1.51942,2.942365 l -12.3073,11.256259 c -0.70907,0.650057 -1.11424,1.368543 -1.11424,2.018599 0,1.74489 1.51941,2.634444 4.7102,2.634444 h 14.9916 c 2.58302,0 3.89985,-0.957981 3.89985,-2.70287 0,-1.710677 -1.21554,-2.634445 -3.84919,-2.634445 h -8.15422 c 3.39336,-3.079215 4.55825,-4.071415 7.85034,-7.013777 2.27912,-2.087024 3.69724,-4.584619 3.69724,-6.740071 0,-4.379329 -5.82443,-7.219059 -11.64888,-7.219059 -5.97638,0 -11.90212,2.976584 -11.90212,7.80069"
       id="path10"
       inkscape:connector-curvature="0"
       style="stroke-width:1.06666672" />
    <path
       d="m 280.15083,71.118226 c 0,1.950171 1.51941,2.942366 4.00114,2.942366 2.63365,0 4.05178,-0.992195 4.05178,-2.942366 v -2.839725 c 2.48172,0 3.7479,-0.889553 3.7479,-2.60023 0,-1.813316 -1.26618,-2.70287 -3.79855,-2.70287 V 52.163919 c 0,-2.360733 -2.27913,-3.763491 -5.16603,-3.763491 -2.27912,0 -4.05178,0.752699 -5.36861,2.189667 l -11.75018,12.795868 0.10133,-0.102635 c -0.75971,0.684271 -1.06359,1.43697 -1.06359,2.087027 0,1.573823 1.57005,2.942365 4.6089,2.942365 h 10.63594 v 2.805511 m 0,-13.651206 v 5.508382 h -4.71021 l 4.71021,-5.508382"
       id="path12"
       inkscape:connector-curvature="0"
       style="stroke-width:1.06666672" />
  </g>
  <g
     style="fill:#3771c8"
     transform="matrix(1.0950814,0,0,0.91317413,-243.11982,201.16397)"
     id="g24">
    <path
       d="m 283.03719,-202.60544 c -7.16578,0 -11.92941,6.92151 -11.92941,14.08731 0,5.65934 3.05362,10.62654 9.36439,10.62654 7.53221,0 11.92942,-6.67722 11.92942,-13.8023 0,-5.65934 -3.05361,-10.91155 -9.3644,-10.91155 m -0.61072,5.78149 c 2.56503,0 3.50148,3.25719 3.50148,5.98507 0,2.64645 -1.3436,7.24722 -4.88577,7.24722 -2.52431,0 -3.46076,-3.09431 -3.46076,-5.78148 0,-2.56504 1.34359,-7.45081 4.84505,-7.45081"
       id="path26"
       inkscape:connector-curvature="0"
       style="stroke-width:1.06666672" />
    <path
       d="m 295.69503,-198.61539 c -1.83216,17.42589 -1.83216,17.62948 -1.83216,17.83305 0,1.66931 0.97715,2.52431 2.85003,2.52431 2.15787,0 3.25718,-1.05858 3.46075,-3.13503 l 1.18073,-11.35941 c 0.20357,-1.79144 2.11716,-3.0536 3.66432,-3.0536 0.73286,0 1.46574,0.24429 2.40217,0.24429 1.87288,0 3.5829,-1.6286 3.5829,-3.5829 0,-1.54716 -1.14002,-3.0536 -4.1529,-3.0536 -1.71003,0 -4.51934,1.6693 -5.33363,3.01288 v -0.20357 c 0,-1.79145 -1.14002,-2.4836 -2.36146,-2.4836 -2.07645,0 -3.21646,1.05859 -3.46075,3.25718"
       id="path28"
       inkscape:connector-curvature="0"
       style="stroke-width:1.06666672" />
    <path
       d="m 321.52534,-202.68687 c -7.20649,0 -11.97013,7.28795 -11.97013,14.16874 0,5.94434 3.37933,10.70796 9.9344,10.70796 3.74575,0 6.9215,-1.38429 9.20153,-3.9086 0.61072,-0.57001 0.81429,-1.14002 0.89572,-1.87289 0,-1.30287 -0.32572,-2.68717 -2.03573,-2.68717 -2.15788,0 -3.70505,2.52431 -6.84008,2.52431 -1.6693,0 -4.92648,-1.14001 -4.92648,-4.39718 0,-0.16286 0.0407,-0.36643 0.0407,-0.52929 h 9.32368 c 3.13503,0 5.04862,-1e-5 5.37434,-3.13504 0.0814,-0.57001 0.0814,-1.14001 0.0814,-1.6693 0,-5.41505 -3.13504,-9.20154 -9.07938,-9.20154 m -4.92648,9.77154 c 0.285,-2.52431 2.4836,-3.8679 4.35648,-3.8679 1.6693,0 3.21646,1.05859 3.21646,3.2979 0,0.16286 0,0.36643 -0.0408,0.57 h -7.53222"
       id="path30"
       inkscape:connector-curvature="0"
       style="stroke-width:1.06666672" />
  </g>
  <text
     xml:space="preserve"
     style="font-style:normal;font-variant:normal;font-weight:bold;font-stretch:normal;font-size:22.70571899px;line-height:125%;font-family:'Porky\'s';-inkscape-font-specification:'Porky\'s Bold';letter-spacing:0.27733332px;word-spacing:0px;fill:#3771c8;fill-opacity:1;stroke:none;stroke-width:1.06666672"
     x="77.322647"
     y="99.576538"
     id="text3013"><tspan
       sodipodi:role="line"
       id="tspan3015"
       x="77.322647"
       y="99.576538"
       style="letter-spacing:0.80000001px;stroke-width:1.06666672">v9.<tspan
   style="letter-spacing:2.04799986px;stroke-width:1.06666672"
   id="tspan4146">0</tspan></tspan></text>
  <g
     aria-label="v9.0"
     style="font-style:normal;font-variant:normal;font-weight:bold;font-stretch:normal;font-size:22.7053318px;line-height:125%;font-family:'Porky\'s';-inkscape-font-specification:'Porky\'s, Bold';font-variant-ligatures:normal;font-variant-caps:normal;font-variant-numeric:normal;font-feature-settings:normal;text-align:start;letter-spacing:0.27733332px;word-spacing:0px;writing-mode:lr-tb;text-anchor:start;fill:#3771c8;fill-opacity:1;stroke:none;stroke-width:1.06666672"
     id="text54">
    <path
       d="m 80.052069,51.328075 q 0.544928,-1.566668 1.952658,-4.927057 0.590339,-1.498552 2.111596,-1.36232 0.908214,0.06812 1.498552,0.658455 0.68116,0.68116 0.590339,1.680195 -0.04541,0.544928 -0.34058,1.135266 l -4.018844,8.128509 q -0.817392,1.657489 -2.452176,1.521257 -1.612078,-0.136232 -2.134301,-1.929953 l -2.542997,-8.696142 q -0.181643,-0.635749 -0.136232,-1.180677 0.06812,-0.999035 0.840097,-1.543963 0.703866,-0.476812 1.589373,-0.408696 1.498552,0.136232 1.861838,1.725605 z"
       style="font-style:normal;font-variant:normal;font-weight:bold;font-stretch:normal;font-size:22.7053318px;font-family:'Porky\'s';-inkscape-font-specification:'Porky\'s Bold';letter-spacing:0.28px"
       id="path324" />
    <path
       d="m 91.18841,52.009235 -0.113527,-0.0227 q -1.793721,-0.454107 -2.860872,-1.998069 -0.999034,-1.453141 -0.999034,-3.314979 0,-0.771981 0.181642,-1.521257 0.544928,-1.998069 2.202418,-3.292273 1.657489,-1.316909 3.769085,-1.316909 0.840097,0 1.7029,0.227053 2.202417,0.613044 3.473915,2.293239 1.203383,1.589373 1.203383,3.632853 0,0.840097 -0.227053,1.7029 -0.658455,2.42947 -3.859907,5.471984 -3.087925,2.951694 -5.608217,3.769086 -0.454106,0.158937 -1.044445,0 -0.590339,-0.158938 -1.089856,-0.840098 -0.476812,-0.703865 -0.476812,-1.430436 0,-0.227053 0.04541,-0.454106 0.158937,-0.590339 1.612078,-1.589373 1.044446,-0.658455 2.088891,-1.31691 z m 2.315944,-7.038653 q -1.203383,0 -1.589374,1.385026 -0.06812,0.317874 -0.06812,0.613044 0,1.226088 1.157972,1.521257 0.204348,0.06812 0.431402,0.06812 1.180677,0 1.566668,-1.385025 0.06812,-0.29517 0.06812,-0.590339 0,-0.703865 -0.454107,-1.157972 -0.431401,-0.454107 -1.112561,-0.454107 z"
       style="letter-spacing:2.58000088px"
       id="path326" />
    <path
       d="m 97.371819,55.982668 q 0,-0.953624 0.68116,-1.634784 0.68116,-0.703865 1.657489,-0.703865 0.953622,0 1.634782,0.68116 0.70387,0.68116 0.70387,1.657489 0,0.953624 -0.68116,1.634784 -0.68116,0.703866 -1.657492,0.703866 -0.953624,0 -1.657489,-0.68116 -0.68116,-0.68116 -0.68116,-1.65749 z"
       style="letter-spacing:2.58000088px"
       id="path328" />
    <path
       d="m 112.16055,58.207791 q -0.54493,0.09082 -1.06715,0.09082 -2.92899,0 -4.83624,-2.656524 -1.49855,-2.111595 -1.97536,-5.222226 -0.18164,-1.112561 -0.18164,-2.247828 0,-2.860872 1.08985,-4.790825 1.36232,-2.338649 4.20049,-2.792756 0.54493,-0.09082 1.06715,-0.09082 2.92899,0 4.83623,2.656524 1.49856,2.111596 1.97537,5.222226 0.18164,1.112561 0.18164,2.247828 0,2.860872 -1.08986,4.790825 -1.36232,2.338649 -4.20048,2.792756 z m -2.1116,-13.441557 q -1.43043,0.204348 -1.43043,2.429471 0,0.771981 0.27246,2.497586 0.31787,1.975364 0.63575,2.815462 0.70386,1.725605 1.97536,1.521257 1.43044,-0.204348 1.43044,-2.452176 0,-0.794687 -0.27246,-2.474881 -0.31788,-2.020775 -0.65846,-2.860872 -0.68116,-1.680195 -1.95266,-1.475847 z"
       style="font-style:normal;font-variant:normal;font-weight:bold;font-stretch:normal;font-size:22.7053318px;font-family:'Porky\'s';-inkscape-font-specification:'Porky\'s Bold';letter-spacing:0.28px"
       id="path330" />
  </g>
</svg>
