<?xml version="1.0" encoding="UTF-8" standalone="no"?>
<svg
   xmlns:dc="http://purl.org/dc/elements/1.1/"
   xmlns:cc="http://creativecommons.org/ns#"
   xmlns:rdf="http://www.w3.org/1999/02/22-rdf-syntax-ns#"
   xmlns:svg="http://www.w3.org/2000/svg"
   xmlns="http://www.w3.org/2000/svg"
   xmlns:sodipodi="http://sodipodi.sourceforge.net/DTD/sodipodi-0.dtd"
   xmlns:inkscape="http://www.inkscape.org/namespaces/inkscape"
   width="120"
   height="56"
   id="svg2"
   version="1.1"
   inkscape:version="0.91 r13725"
   sodipodi:docname="logo.svg"
   inkscape:export-filename="/home/giovanni/progetti/subotto/website/images/logo.png"
   inkscape:export-xdpi="90"
   inkscape:export-ydpi="90">
  <metadata
     id="metadata36">
    <rdf:RDF>
      <cc:Work
         rdf:about="">
        <dc:format>image/svg+xml</dc:format>
        <dc:type
           rdf:resource="http://purl.org/dc/dcmitype/StillImage" />
        <dc:title />
      </cc:Work>
    </rdf:RDF>
  </metadata>
  <defs
     id="defs34" />
  <sodipodi:namedview
     pagecolor="#ffffff"
     bordercolor="#666666"
     borderopacity="1"
     objecttolerance="10"
     gridtolerance="10"
     guidetolerance="10"
     inkscape:pageopacity="0"
     inkscape:pageshadow="2"
     inkscape:window-width="1920"
     inkscape:window-height="1016"
     id="namedview32"
     showgrid="false"
     inkscape:zoom="3.351706"
     inkscape:cx="28.524299"
     inkscape:cy="54.166544"
     inkscape:window-x="0"
     inkscape:window-y="27"
     inkscape:window-maximized="1"
     inkscape:current-layer="svg2" />
  <g
     style="fill:#3771c8"
     transform="matrix(1.0449831,0,0,1.0449831,-239.22257,-37.24081)"
     id="g8">
    <path
       d="m 228.92483,52.079119 c 0,1.283007 1.28201,2.950918 3.89352,2.950918 2.51653,0 3.75106,-1.699986 3.75106,-2.822618 0,-1.603758 1.66187,-2.373565 3.37122,-2.373565 1.66186,0 3.37121,0.705657 3.37121,1.924513 0,0.93018 -0.47482,1.924512 -1.42446,2.758467 l -11.53809,10.552743 c -0.66475,0.609429 -1.0446,1.283009 -1.0446,1.892437 0,1.635834 1.42445,2.469791 4.41581,2.469791 l 14.05463,0 c 2.42158,0 3.65611,-0.898107 3.65611,-2.533941 0,-1.603759 -1.13957,-2.469792 -3.60862,-2.469792 l -7.64458,0 c 3.18128,-2.886764 4.27336,-3.816951 7.35969,-6.575416 2.13668,-1.956585 3.46617,-4.29808 3.46617,-6.318816 0,-4.105621 -5.46041,-6.767868 -10.92083,-6.767868 -5.60285,0 -11.15824,2.790547 -11.15824,7.313147"
       id="path10"
       inkscape:connector-curvature="0" />
    <path
       d="m 262.6414,66.673337 c 0,1.828285 1.42445,2.758468 3.75107,2.758468 2.46905,0 3.79855,-0.930183 3.79855,-2.758468 l 0,-2.662242 c 2.32661,0 3.51365,-0.833956 3.51365,-2.437716 0,-1.699984 -1.18704,-2.533941 -3.56114,-2.533941 l 0,-10.135764 c 0,-2.213187 -2.13668,-3.528273 -4.84315,-3.528273 -2.13668,0 -3.79855,0.705656 -5.03307,2.052813 l -11.0158,11.996126 0.095,-0.09622 c -0.71223,0.641504 -0.99712,1.347159 -0.99712,1.956588 0,1.475459 1.47193,2.758467 4.32085,2.758467 l 9.97119,0 0,2.630167 m 0,-12.798006 0,5.164108 -4.41582,0 4.41582,-5.164108"
       id="path12"
       inkscape:connector-curvature="0" />
  </g>
  <g
     style="fill:#3771c8"
     transform="matrix(1.0950814,0,0,0.91317413,-227.92483,188.59122)"
     id="g24">
    <path
       d="m 265.34737,-189.9426 c -6.71792,0 -11.18383,6.48892 -11.18383,13.20685 0,5.30563 2.86277,9.96238 8.77912,9.96238 7.06145,0 11.18383,-6.25989 11.18383,-12.93965 0,-5.30563 -2.86276,-10.22958 -8.77912,-10.22958 m -0.57255,5.42015 c 2.40471,0 3.28263,3.05361 3.28263,5.611 0,2.48105 -1.25962,6.79427 -4.58041,6.79427 -2.36654,0 -3.24446,-2.90092 -3.24446,-5.42014 0,-2.40472 1.25962,-6.98513 4.54224,-6.98513"
       id="path26"
       inkscape:connector-curvature="0" />
    <path
       d="m 277.21409,-186.20193 c -1.71765,16.33677 -1.71765,16.52764 -1.71765,16.71849 0,1.56497 0.91608,2.36654 2.6719,2.36654 2.02301,0 3.05361,-0.99242 3.24446,-2.93909 l 1.10693,-10.64945 c 0.19085,-1.67948 1.98484,-2.86275 3.4353,-2.86275 0.68706,0 1.37413,0.22902 2.25204,0.22902 1.75582,0 3.35896,-1.52681 3.35896,-3.35897 0,-1.45046 -1.06876,-2.86275 -3.89334,-2.86275 -1.60315,0 -4.23688,1.56497 -5.00028,2.82458 l 0,-0.19085 c 0,-1.67948 -1.06877,-2.32837 -2.21387,-2.32837 -1.94667,0 -3.01543,0.99242 -3.24445,3.0536"
       id="path28"
       inkscape:connector-curvature="0" />
    <path
       d="m 301.43001,-190.01894 c -6.75609,0 -11.222,6.83245 -11.222,13.28319 0,5.57282 3.16812,10.03872 9.3135,10.03872 3.51164,0 6.48891,-1.29778 8.62643,-3.66432 0.57255,-0.53438 0.7634,-1.06877 0.83974,-1.75583 0,-1.22144 -0.30536,-2.51922 -1.9085,-2.51922 -2.02301,0 -3.47348,2.36654 -6.41257,2.36654 -1.56497,0 -4.61858,-1.06876 -4.61858,-4.12236 0,-0.15268 0.0382,-0.34353 0.0382,-0.49621 l 8.74095,0 c 2.93909,0 4.73308,-1e-5 5.03844,-2.9391 0.0763,-0.53438 0.0763,-1.06876 0.0763,-1.56497 0,-5.07661 -2.9391,-8.62644 -8.51192,-8.62644 m -4.61858,9.16082 c 0.26719,-2.36654 2.32838,-3.62616 4.0842,-3.62616 1.56497,0 3.01543,0.99243 3.01543,3.09178 0,0.15268 0,0.34353 -0.0382,0.53438 l -7.06146,0"
       id="path30"
       inkscape:connector-curvature="0" />
  </g>
  <text
     xml:space="preserve"
     style="font-style:normal;font-variant:normal;font-weight:bold;font-stretch:normal;font-size:21.28661156px;line-height:125%;font-family:'Porky\'s';-inkscape-font-specification:'Porky\'s Bold';letter-spacing:0.25999999px;word-spacing:0px;fill:#3771c8;fill-opacity:1;stroke:none"
     x="64.872398"
     y="105.63448"
     id="text3013"
     sodipodi:linespacing="125%"><tspan
       sodipodi:role="line"
       id="tspan3015"
       x="64.872398"
       y="105.63448"
       style="letter-spacing:0.75px">v<tspan
   style="letter-spacing:1.91999996px"
   id="tspan4146">7.0</tspan></tspan></text>
  <g
     style="font-style:normal;font-variant:normal;font-weight:bold;font-stretch:normal;font-size:21.28661156px;line-height:125%;letter-spacing:0.25999999px;word-spacing:0px;fill:#3771c8;fill-opacity:1;stroke:none"
     id="text3013-4"
     transform="translate(-34.01253,-35.802663)">
    <path
       d="m 112.08821,85.1303 q 0.51088,-1.468776 1.83065,-4.619195 0.55345,-1.404916 1.97966,-1.277197 0.85146,0.06386 1.40491,0.617312 0.6386,0.638599 0.55346,1.575209 -0.0426,0.510879 -0.3193,1.064331 l -3.76773,7.620607 q -0.76632,1.553923 -2.29896,1.426203 -1.51135,-0.12772 -2.00094,-1.809362 l -2.3841,-8.152772 q -0.17029,-0.596025 -0.12772,-1.106904 0.0639,-0.936611 0.78761,-1.44749 0.65988,-0.447019 1.49006,-0.383159 1.40491,0.12772 1.7455,1.617783 l 1.1069,4.874634 z"
       style="font-style:normal;font-variant:normal;font-weight:bold;font-stretch:normal;font-family:'Porky\'s';-inkscape-font-specification:'Porky\'s Bold';letter-spacing:0.75px"
       id="path4170"
       inkscape:connector-curvature="0" />
    <path
       d="m 130.12594,79.808647 -6.89687,9.770555 q -0.59602,0.872751 -0.91532,1.149477 -0.51088,0.425732 -1.17076,0.425732 -0.21287,0 -0.44702,-0.04257 -1.02176,-0.149007 -1.57521,-0.936611 -0.48959,-0.681172 -0.36187,-1.426203 0.0639,-0.468306 0.42573,-0.936611 l 6.30083,-8.429498 -4.51276,-0.723745 q -1.80936,-0.276726 -1.80936,-1.958368 0,-0.872751 0.53217,-1.44749 0.55345,-0.574738 1.44749,-0.574738 0.21286,0 0.44702,0.04257 l 7.6206,1.19205 q 0.97919,0.170293 1.44749,1.000471 0.38316,0.681171 0.25544,1.362343 -0.0639,0.532165 -0.7876,1.532636 z"
       style="font-style:normal;font-variant:normal;font-weight:bold;font-stretch:normal;font-family:'Porky\'s';-inkscape-font-specification:'Porky\'s Bold';letter-spacing:1.91999996px"
       id="path4172"
       inkscape:connector-curvature="0" />
    <path
       d="m 126.42278,89.494055 q 0,-0.894037 0.6386,-1.532636 0.6386,-0.659885 1.55392,-0.659885 0.89404,0 1.53264,0.638599 0.65988,0.638598 0.65988,1.553922 0,0.894038 -0.6386,1.532636 -0.6386,0.659885 -1.55392,0.659885 -0.89404,0 -1.55392,-0.638598 -0.6386,-0.638599 -0.6386,-1.553923 z"
       style="font-style:normal;font-variant:normal;font-weight:bold;font-stretch:normal;font-family:'Porky\'s';-inkscape-font-specification:'Porky\'s Bold';letter-spacing:1.91999996px"
       id="path4174"
       inkscape:connector-curvature="0" />
    <path
       d="m 138.66612,91.580143 q -0.51088,0.08515 -1.00047,0.08515 -2.74597,0 -4.53405,-2.490534 -1.40492,-1.979655 -1.85193,-4.895921 -0.1703,-1.043044 -0.1703,-2.107374 0,-2.682113 1.02176,-4.491475 1.2772,-2.192521 3.93802,-2.618253 0.51088,-0.08515 1.00047,-0.08515 2.74598,0 4.53405,2.490534 1.40492,1.979655 1.85194,4.89592 0.17029,1.043044 0.17029,2.107375 0,2.682113 -1.02176,4.491475 -1.27719,2.192521 -3.93802,2.618253 z m -1.97966,-12.601674 q -1.34105,0.19158 -1.34105,2.277668 0,0.723744 0.25544,2.341527 0.29801,1.851935 0.59602,2.63954 0.65989,1.617782 1.85194,1.426203 1.34105,-0.19158 1.34105,-2.298954 0,-0.745032 -0.25543,-2.320241 -0.29802,-1.894509 -0.61732,-2.682113 -0.63859,-1.575209 -1.83065,-1.38363 z"
       style="font-style:normal;font-variant:normal;font-weight:bold;font-stretch:normal;font-family:'Porky\'s';-inkscape-font-specification:'Porky\'s Bold';letter-spacing:1.91999996px"
       id="path4176"
       inkscape:connector-curvature="0" />
  </g>
</svg>
