<?xml version="1.0" encoding="UTF-8" standalone="no"?>
<svg
   xmlns:dc="http://purl.org/dc/elements/1.1/"
   xmlns:cc="http://creativecommons.org/ns#"
   xmlns:rdf="http://www.w3.org/1999/02/22-rdf-syntax-ns#"
   xmlns:svg="http://www.w3.org/2000/svg"
   xmlns="http://www.w3.org/2000/svg"
   xmlns:sodipodi="http://sodipodi.sourceforge.net/DTD/sodipodi-0.dtd"
   xmlns:inkscape="http://www.inkscape.org/namespaces/inkscape"
   width="128"
   height="59.733334"
   id="svg2"
   version="1.1"
   inkscape:version="0.92.0 r15299"
   sodipodi:docname="logo.svg"
   inkscape:export-filename="/home/giovanni/progetti/subotto/website/images/logo.png"
   inkscape:export-xdpi="90"
   inkscape:export-ydpi="90">
  <metadata
     id="metadata36">
    <rdf:RDF>
      <cc:Work
         rdf:about="">
        <dc:format>image/svg+xml</dc:format>
        <dc:type
           rdf:resource="http://purl.org/dc/dcmitype/StillImage" />
        <dc:title />
      </cc:Work>
    </rdf:RDF>
  </metadata>
  <defs
     id="defs34" />
  <sodipodi:namedview
     pagecolor="#ffffff"
     bordercolor="#666666"
     borderopacity="1"
     objecttolerance="10"
     gridtolerance="10"
     guidetolerance="10"
     inkscape:pageopacity="0"
     inkscape:pageshadow="2"
     inkscape:window-width="1920"
     inkscape:window-height="1016"
     id="namedview32"
     showgrid="false"
     inkscape:zoom="3.351706"
     inkscape:cx="-16.974918"
     inkscape:cy="54.166544"
     inkscape:window-x="0"
     inkscape:window-y="27"
     inkscape:window-maximized="1"
     inkscape:current-layer="text3701" />
  <g
     style="fill:#3771c8"
     transform="matrix(1.0449831,0,0,1.0449831,-255.17074,-39.723531)"
     id="g8">
    <path
       d="m 244.18649,55.55106 c 0,1.368541 1.36747,3.147646 4.15308,3.147646 2.6843,0 4.00113,-1.813318 4.00113,-3.010792 0,-1.710676 1.77267,-2.531803 3.59597,-2.531803 1.77265,0 3.59596,0.752701 3.59596,2.052814 0,0.992192 -0.50648,2.052813 -1.51942,2.942365 l -12.3073,11.256259 c -0.70907,0.650057 -1.11424,1.368543 -1.11424,2.018599 0,1.74489 1.51941,2.634444 4.7102,2.634444 h 14.9916 c 2.58302,0 3.89985,-0.957981 3.89985,-2.70287 0,-1.710677 -1.21554,-2.634445 -3.84919,-2.634445 h -8.15422 c 3.39336,-3.079215 4.55825,-4.071415 7.85034,-7.013777 2.27912,-2.087024 3.69724,-4.584619 3.69724,-6.740071 0,-4.379329 -5.82443,-7.219059 -11.64888,-7.219059 -5.97638,0 -11.90212,2.976584 -11.90212,7.80069"
       id="path10"
       inkscape:connector-curvature="0"
       style="stroke-width:1.06666672" />
    <path
       d="m 280.15083,71.118226 c 0,1.950171 1.51941,2.942366 4.00114,2.942366 2.63365,0 4.05178,-0.992195 4.05178,-2.942366 v -2.839725 c 2.48172,0 3.7479,-0.889553 3.7479,-2.60023 0,-1.813316 -1.26618,-2.70287 -3.79855,-2.70287 V 52.163919 c 0,-2.360733 -2.27913,-3.763491 -5.16603,-3.763491 -2.27912,0 -4.05178,0.752699 -5.36861,2.189667 l -11.75018,12.795868 0.10133,-0.102635 c -0.75971,0.684271 -1.06359,1.43697 -1.06359,2.087027 0,1.573823 1.57005,2.942365 4.6089,2.942365 h 10.63594 v 2.805511 m 0,-13.651206 v 5.508382 h -4.71021 l 4.71021,-5.508382"
       id="path12"
       inkscape:connector-curvature="0"
       style="stroke-width:1.06666672" />
  </g>
  <g
     style="fill:#3771c8"
     transform="matrix(1.0950814,0,0,0.91317413,-243.11982,201.16397)"
     id="g24">
    <path
       d="m 283.03719,-202.60544 c -7.16578,0 -11.92941,6.92151 -11.92941,14.08731 0,5.65934 3.05362,10.62654 9.36439,10.62654 7.53221,0 11.92942,-6.67722 11.92942,-13.8023 0,-5.65934 -3.05361,-10.91155 -9.3644,-10.91155 m -0.61072,5.78149 c 2.56503,0 3.50148,3.25719 3.50148,5.98507 0,2.64645 -1.3436,7.24722 -4.88577,7.24722 -2.52431,0 -3.46076,-3.09431 -3.46076,-5.78148 0,-2.56504 1.34359,-7.45081 4.84505,-7.45081"
       id="path26"
       inkscape:connector-curvature="0"
       style="stroke-width:1.06666672" />
    <path
       d="m 295.69503,-198.61539 c -1.83216,17.42589 -1.83216,17.62948 -1.83216,17.83305 0,1.66931 0.97715,2.52431 2.85003,2.52431 2.15787,0 3.25718,-1.05858 3.46075,-3.13503 l 1.18073,-11.35941 c 0.20357,-1.79144 2.11716,-3.0536 3.66432,-3.0536 0.73286,0 1.46574,0.24429 2.40217,0.24429 1.87288,0 3.5829,-1.6286 3.5829,-3.5829 0,-1.54716 -1.14002,-3.0536 -4.1529,-3.0536 -1.71003,0 -4.51934,1.6693 -5.33363,3.01288 v -0.20357 c 0,-1.79145 -1.14002,-2.4836 -2.36146,-2.4836 -2.07645,0 -3.21646,1.05859 -3.46075,3.25718"
       id="path28"
       inkscape:connector-curvature="0"
       style="stroke-width:1.06666672" />
    <path
       d="m 321.52534,-202.68687 c -7.20649,0 -11.97013,7.28795 -11.97013,14.16874 0,5.94434 3.37933,10.70796 9.9344,10.70796 3.74575,0 6.9215,-1.38429 9.20153,-3.9086 0.61072,-0.57001 0.81429,-1.14002 0.89572,-1.87289 0,-1.30287 -0.32572,-2.68717 -2.03573,-2.68717 -2.15788,0 -3.70505,2.52431 -6.84008,2.52431 -1.6693,0 -4.92648,-1.14001 -4.92648,-4.39718 0,-0.16286 0.0407,-0.36643 0.0407,-0.52929 h 9.32368 c 3.13503,0 5.04862,-1e-5 5.37434,-3.13504 0.0814,-0.57001 0.0814,-1.14001 0.0814,-1.6693 0,-5.41505 -3.13504,-9.20154 -9.07938,-9.20154 m -4.92648,9.77154 c 0.285,-2.52431 2.4836,-3.8679 4.35648,-3.8679 1.6693,0 3.21646,1.05859 3.21646,3.2979 0,0.16286 0,0.36643 -0.0408,0.57 h -7.53222"
       id="path30"
       inkscape:connector-curvature="0"
       style="stroke-width:1.06666672" />
  </g>
  <text
     xml:space="preserve"
     style="font-style:normal;font-variant:normal;font-weight:bold;font-stretch:normal;font-size:22.70571899px;line-height:125%;font-family:'Porky\'s';-inkscape-font-specification:'Porky\'s Bold';letter-spacing:0.27733332px;word-spacing:0px;fill:#3771c8;fill-opacity:1;stroke:none;stroke-width:1.06666672"
     x="68.898872"
     y="108.4998"
     id="text3013"><tspan
       sodipodi:role="line"
       id="tspan3015"
       x="68.898872"
       y="108.4998"
       style="letter-spacing:0.80000001px;stroke-width:1.06666672">v8<tspan
   style="letter-spacing:2.04799986px;stroke-width:1.06666672"
   id="tspan4146">.0</tspan></tspan></text>
  <g
     aria-label="v8.0"
     style="font-style:normal;font-variant:normal;font-weight:bold;font-stretch:normal;font-size:22.70571899px;line-height:125%;font-family:'Porky\'s';-inkscape-font-specification:'Porky\'s Bold';letter-spacing:0.27733332px;word-spacing:0px;fill:#3771c8;fill-opacity:1;stroke:none;stroke-width:1.06666672"
     id="text3701">
    <path
       d="m 80.05235,51.327757 q 0.544938,-1.566695 1.952692,-4.927141 0.590349,-1.498578 2.111632,-1.362343 0.908229,0.06812 1.498577,0.658465 0.681172,0.681172 0.590349,1.680224 -0.04541,0.544937 -0.340586,1.135286 l -4.018912,8.128647 q -0.817406,1.657518 -2.452218,1.521283 -1.612106,-0.136234 -2.134337,-1.929986 l -2.543041,-8.69629 q -0.181645,-0.63576 -0.136234,-1.180698 0.06812,-0.999051 0.840112,-1.543989 0.703877,-0.47682 1.5894,-0.408703 1.498577,0.136235 1.861869,1.725635 z"
       style="letter-spacing:0.80000001px;stroke-width:1.06666672"
       id="path3703" />
    <path
       d="m 93.001684,58.298413 q -2.565746,0.181645 -4.473026,-1.294226 -1.907281,-1.498578 -2.088927,-3.996207 -0.15894,-2.497629 1.771046,-4.132441 -1.43046,-1.203403 -1.566694,-3.087978 -0.136234,-2.202454 1.385049,-3.701032 1.453166,-1.43046 3.746443,-1.5894 2.225161,-0.15894 3.882678,1.044463 1.771046,1.27152 1.929986,3.496681 0.136235,1.861869 -1.089874,3.269623 2.088926,1.294226 2.270572,3.837267 0.181646,2.565746 -1.566695,4.314086 -1.634812,1.657518 -4.200558,1.839164 z M 92.048044,44.62957 q -1.067169,0.06812 -0.976346,1.226108 0.09082,1.157992 1.135286,1.067169 1.089875,-0.06812 1.021757,-1.226109 -0.09082,-1.157991 -1.180697,-1.067168 z m 0.431409,6.017015 q -1.498578,0.113529 -1.385049,1.793752 0.06812,0.749289 0.47682,1.203403 0.431409,0.454114 1.135286,0.408703 0.658466,-0.04541 1.044463,-0.567643 0.385997,-0.522231 0.340586,-1.248814 -0.113529,-1.702929 -1.612106,-1.589401 z"
       style="letter-spacing:0.80000001px;stroke-width:1.06666672"
       id="path3705" />
    <path
       d="m 100.54706,55.982429 q 0,-0.95364 0.68117,-1.634812 0.68117,-0.703877 1.65752,-0.703877 0.95364,0 1.63481,0.681172 0.70388,0.681171 0.70388,1.657517 0,0.95364 -0.68118,1.634812 -0.68117,0.703877 -1.65751,0.703877 -0.95364,0 -1.65752,-0.681171 -0.68117,-0.681172 -0.68117,-1.657518 z"
       style="letter-spacing:2.04799986px;stroke-width:1.06666672"
       id="path3707" />
    <path
       d="m 113.62879,58.20759 q -0.54493,0.09082 -1.06717,0.09082 -2.92903,0 -4.83631,-2.65657 -1.49858,-2.111631 -1.9754,-5.222315 -0.18165,-1.11258 -0.18165,-2.247866 0,-2.860921 1.08988,-4.790907 1.36234,-2.338689 4.20056,-2.792803 0.54493,-0.09082 1.06716,-0.09082 2.92904,0 4.83632,2.656569 1.49858,2.111632 1.9754,5.222315 0.18165,1.112581 0.18165,2.247866 0,2.860921 -1.08988,4.790907 -1.36234,2.338689 -4.20056,2.792804 z m -2.11163,-13.441786 q -1.43046,0.204351 -1.43046,2.429512 0,0.771994 0.27247,2.497629 0.31788,1.975398 0.63576,2.815509 0.70388,1.725635 1.9754,1.521283 1.43046,-0.204351 1.43046,-2.452217 0,-0.7947 -0.27247,-2.474924 -0.31788,-2.020809 -0.65847,-2.86092 -0.68117,-1.680223 -1.95269,-1.475872 z"
       style="letter-spacing:2.04799986px;stroke-width:1.06666672"
       id="path3709" />
  </g>
</svg>
